<svg id="图层_1" data-name="图层 1" xmlns="http://www.w3.org/2000/svg" viewBox="0 0 264.2 239.46"><defs><style>.cls-1{fill:#4d5890;}.cls-2{fill:#dc9f56;}.cls-3{fill:#c7685a;}.cls-4,.cls-5{font-size:36.85px;stroke-miterlimit:10;stroke-width:2px;font-family:xiaowei;}.cls-4{fill:#4e598c;stroke:#4e598c;}.cls-5{fill:#d3a162;stroke:#bb6d5e;}</style></defs><rect class="cls-1" x="101.07" y="137.01" width="16.1" height="41.68" rx="3"/><rect class="cls-1" x="149.39" y="137.01" width="16.1" height="41.68" rx="3"/><rect class="cls-1" x="101.07" width="16.1" height="41.68" rx="3"/><rect class="cls-1" x="149.39" width="16.1" height="41.68" rx="3"/><path class="cls-2" d="M173.25,93.85h-46.5a9,9,0,0,0-9,9v46.49a9,9,0,0,0,9,9h46.5a9,9,0,0,0,9-9V102.82A9,9,0,0,0,173.25,93.85Zm-7.15,43.83a4.48,4.48,0,0,1-4.48,4.49H138.38a4.48,4.48,0,0,1-4.48-4.49V114.44a4.47,4.47,0,0,1,4.48-4.48h23.24a4.47,4.47,0,0,1,4.48,4.48Z" transform="translate(-16.72 -36.66)"/><rect class="cls-1" x="73.44" y="81" width="16.1" height="41.68" rx="3" transform="translate(166.62 -16.31) rotate(90)"/><rect class="cls-1" x="73.44" y="129.31" width="16.1" height="41.68" rx="3" transform="translate(214.93 32) rotate(90)"/><rect class="cls-1" x="210.45" y="81" width="16.1" height="41.68" rx="3" transform="translate(303.63 -153.31) rotate(90)"/><rect class="cls-1" x="210.45" y="129.31" width="16.1" height="41.68" rx="3" transform="translate(351.94 -105) rotate(90)"/><path class="cls-3" d="M202.25,64.13H97.75a9.68,9.68,0,0,0-9.68,9.69V178.31A9.68,9.68,0,0,0,97.75,188h104.5a9.68,9.68,0,0,0,9.68-9.69V73.82A9.68,9.68,0,0,0,202.25,64.13Zm-5.53,101.35a7.3,7.3,0,0,1-7.31,7.3H110.59a7.3,7.3,0,0,1-7.31-7.3V86.65a7.31,7.31,0,0,1,7.31-7.31h78.82a7.31,7.31,0,0,1,7.31,7.31Z" transform="translate(-16.72 -36.66)"/><text class="cls-4" transform="translate(1 231.12)">MHALO.COREFX</text><text class="cls-5" transform="translate(2.79 231.33)">MHALO.COREFX</text></svg>